<?xml version="1.0" encoding="UTF-8"?>
<svg id="Capa_1" data-name="Capa 1" xmlns="http://www.w3.org/2000/svg" viewBox="0 0 300 81">
  <defs>
    <style>
      .cls-1 {
        fill: #fff;
      }

      .cls-2 {
        fill: #e20613;
      }

      .cls-3 {
        fill: #00457c;
      }

      .cls-4 {
        fill: #00427e;
      }
    </style>
  </defs>
  <g>
    <g>
      <path class="cls-4" d="M92.48,53.65c-.32-.27-.65-.47-1.01-.61-.35-.14-.72-.2-1.11-.2-.76,0-1.37.24-1.84.72-.48.48-.71,1.11-.71,1.88s.23,1.36.69,1.84c.46.48,1.04.73,1.74.73.41,0,.8-.07,1.17-.22.37-.14.72-.36,1.06-.65v1.27c-.3.22-.63.38-.98.48-.35.11-.74.16-1.15.16-.53,0-1.02-.09-1.46-.26-.45-.17-.84-.43-1.18-.76-.33-.33-.59-.72-.77-1.17-.18-.45-.27-.92-.27-1.43s.09-.98.27-1.42c.18-.44.44-.83.78-1.17.35-.34.74-.6,1.18-.77.44-.17.92-.26,1.44-.26.4,0,.79.06,1.15.18.37.12.73.3,1.07.53l-.06,1.13Z"/>
      <path class="cls-4" d="M100.94,55.44c0,.49-.09.95-.28,1.39-.18.44-.45.83-.8,1.17-.35.34-.75.6-1.2.78-.45.18-.91.27-1.4.27s-.97-.09-1.42-.27c-.45-.18-.85-.44-1.19-.78-.36-.34-.62-.73-.8-1.16-.18-.43-.27-.9-.27-1.39s.09-.96.27-1.39c.18-.44.45-.83.8-1.17.35-.34.75-.6,1.19-.78.44-.18.92-.27,1.41-.27s.97.09,1.41.27c.44.18.84.44,1.19.78.35.35.62.74.8,1.18.19.44.28.9.28,1.39ZM99.77,55.44c0-.35-.06-.68-.19-.99-.13-.31-.31-.59-.54-.84-.24-.24-.51-.43-.81-.56-.31-.13-.63-.19-.97-.19s-.66.06-.97.19c-.31.13-.58.32-.81.56-.24.24-.42.52-.55.83-.12.31-.19.65-.19,1s.06.68.19.99c.12.31.31.59.55.83.24.24.51.43.81.56.3.13.63.19.97.19s.66-.07.96-.19c.3-.13.58-.31.82-.56.23-.24.42-.52.54-.84.13-.31.19-.64.19-.99Z"/>
      <path class="cls-4" d="M103.27,55.79v3.08h-1.05v-6.89h1.56c.46,0,.81.03,1.07.09.25.06.46.16.65.3.22.16.38.38.5.64s.17.55.17.87c0,.55-.13.99-.4,1.3-.27.31-.66.5-1.18.56l2.37,3.13h-1.26l-2.29-3.08h-.13ZM103.34,54.91h.2c.59,0,.99-.07,1.18-.21.2-.14.29-.38.29-.73,0-.38-.1-.65-.31-.8-.21-.15-.59-.23-1.16-.23h-.2v1.98Z"/>
      <path class="cls-4" d="M108.67,55.78v3.09h-1.05v-6.89h1.69c.5,0,.87.03,1.11.08.24.06.44.15.62.27.22.16.39.38.51.65.12.27.18.57.18.9s-.06.63-.18.9c-.12.28-.29.49-.51.65-.18.13-.38.21-.62.27-.24.05-.61.08-1.11.08h-.65ZM108.74,54.86h.29c.62,0,1.04-.07,1.24-.2.21-.13.31-.37.31-.72,0-.37-.11-.63-.33-.78-.22-.15-.63-.22-1.22-.22h-.29v1.92Z"/>
      <path class="cls-4" d="M119.81,55.44c0,.49-.1.95-.28,1.39-.18.44-.45.83-.8,1.17-.36.34-.76.6-1.2.78-.45.18-.92.27-1.4.27s-.97-.09-1.43-.27c-.44-.18-.85-.44-1.19-.78-.35-.34-.62-.73-.8-1.16-.18-.43-.27-.9-.27-1.39s.09-.96.27-1.39c.18-.44.45-.83.8-1.17.35-.34.75-.6,1.19-.78.45-.18.92-.27,1.42-.27s.96.09,1.41.27c.44.18.84.44,1.19.78.35.35.62.74.8,1.18.18.44.28.9.28,1.39ZM118.64,55.44c0-.35-.07-.68-.19-.99-.13-.31-.31-.59-.55-.84-.23-.24-.5-.43-.81-.56-.31-.13-.63-.19-.96-.19s-.67.06-.97.19c-.31.13-.58.32-.82.56-.24.24-.42.52-.55.83-.13.31-.19.65-.19,1s.06.68.19.99c.13.31.31.59.55.83.24.24.51.43.81.56.3.13.63.19.97.19s.65-.07.95-.19c.31-.13.58-.31.82-.56.24-.24.42-.52.55-.84.13-.31.19-.64.19-.99Z"/>
      <path class="cls-4" d="M122.14,55.79v3.08h-1.05v-6.89h1.56c.46,0,.81.03,1.07.09.25.06.47.16.65.3.21.16.38.38.49.64.12.26.17.55.17.87,0,.55-.13.99-.4,1.3-.27.31-.66.5-1.18.56l2.37,3.13h-1.26l-2.29-3.08h-.13ZM122.21,54.91h.2c.59,0,.99-.07,1.18-.21.2-.14.29-.38.29-.73,0-.38-.1-.65-.31-.8-.21-.15-.6-.23-1.16-.23h-.2v1.98Z"/>
      <path class="cls-4" d="M131.04,58.87l-.78-1.78h-2.73l-.8,1.78h-1.18l3.34-7.16,3.33,7.16h-1.18ZM127.94,56.16h1.92l-.7-1.57c-.04-.1-.08-.22-.13-.35-.05-.13-.09-.28-.13-.44-.04.15-.08.29-.12.42-.04.13-.09.25-.13.36l-.71,1.57Z"/>
      <path class="cls-4" d="M138.23,53.65c-.32-.27-.65-.47-1-.61-.35-.14-.72-.2-1.11-.2-.75,0-1.36.24-1.84.72-.47.48-.71,1.11-.71,1.88s.23,1.36.69,1.84c.46.48,1.04.73,1.74.73.41,0,.79-.07,1.17-.22.37-.14.72-.36,1.06-.65v1.27c-.3.22-.63.38-.98.48-.35.11-.74.16-1.15.16-.53,0-1.01-.09-1.46-.26-.45-.17-.84-.43-1.18-.76-.34-.33-.59-.72-.78-1.17-.18-.45-.27-.92-.27-1.43s.09-.98.27-1.42c.18-.44.44-.83.79-1.17.34-.34.73-.6,1.18-.77.44-.17.92-.26,1.43-.26.41,0,.79.06,1.16.18.37.12.73.3,1.07.53l-.06,1.13Z"/>
      <path class="cls-4" d="M139.64,58.87v-6.89h1.12v6.89h-1.12Z"/>
      <path class="cls-4" d="M149.43,55.44c0,.49-.09.95-.27,1.39-.18.44-.45.83-.8,1.17-.35.34-.76.6-1.2.78-.44.18-.91.27-1.4.27s-.97-.09-1.42-.27c-.45-.18-.85-.44-1.19-.78-.35-.34-.62-.73-.8-1.16-.18-.43-.28-.9-.28-1.39s.1-.96.28-1.39c.18-.44.45-.83.8-1.17.35-.34.75-.6,1.19-.78.45-.18.92-.27,1.42-.27s.96.09,1.41.27c.45.18.84.44,1.19.78.35.35.62.74.8,1.18.19.44.27.9.27,1.39ZM148.26,55.44c0-.35-.06-.68-.19-.99-.13-.31-.31-.59-.55-.84-.23-.24-.5-.43-.81-.56-.3-.13-.63-.19-.97-.19s-.66.06-.97.19c-.3.13-.58.32-.82.56-.24.24-.42.52-.54.83-.13.31-.19.65-.19,1s.06.68.19.99c.12.31.31.59.54.83.24.24.51.43.82.56s.63.19.97.19.66-.07.96-.19c.3-.13.57-.31.82-.56.24-.24.42-.52.55-.84.13-.31.19-.64.19-.99ZM145.09,51.3l.89-1.28h1.06l-1.37,1.28h-.58Z"/>
      <path class="cls-4" d="M150.72,58.87v-7.16l4.37,4.21c.12.12.24.25.36.38.12.14.25.29.39.46v-4.78h1.04v7.16l-4.47-4.29c-.12-.12-.23-.24-.35-.37-.11-.13-.22-.26-.32-.41v4.79h-1.03Z"/>
      <path class="cls-4" d="M161.34,51.98h1.11v4.18c0,.62.14,1.09.43,1.4.29.31.72.47,1.29.47s.99-.16,1.28-.47c.29-.31.43-.78.43-1.4v-4.18h1.12v4.29c0,.93-.23,1.63-.71,2.09-.47.46-1.18.69-2.12.69s-1.65-.23-2.12-.69c-.47-.46-.7-1.16-.7-2.1v-4.29Z"/>
      <path class="cls-4" d="M168.54,58.87v-7.16l4.38,4.21c.12.12.24.25.36.38.13.14.25.29.39.46v-4.78h1.04v7.16l-4.47-4.29c-.12-.12-.23-.24-.34-.37-.11-.13-.21-.26-.32-.41v4.79h-1.03Z"/>
      <path class="cls-4" d="M176.3,58.87v-6.89h1.12v6.89h-1.12Z"/>
      <path class="cls-4" d="M181.22,59.14l-3.08-7.16h1.16l1.54,3.67c.09.21.17.41.22.59.06.18.11.35.14.51.04-.17.09-.35.15-.54.07-.18.14-.37.22-.57l1.54-3.67h1.16l-3.07,7.16Z"/>
      <path class="cls-4" d="M184.99,58.87v-6.89h3.84v.95h-2.73v1.73h2.73v.98h-2.73v2.23h2.73v1h-3.84Z"/>
      <path class="cls-4" d="M191.16,55.79v3.08h-1.05v-6.89h1.56c.46,0,.81.03,1.06.09.26.06.47.16.65.3.21.16.38.38.5.64s.17.55.17.87c0,.55-.13.99-.4,1.3-.27.31-.66.5-1.18.56l2.37,3.13h-1.27l-2.29-3.08h-.13ZM191.23,54.91h.21c.59,0,.98-.07,1.18-.21.2-.14.29-.38.29-.73,0-.38-.1-.65-.31-.8-.21-.15-.59-.23-1.16-.23h-.21v1.98Z"/>
      <path class="cls-4" d="M195.11,57.49l.9-.41c.08.31.24.54.46.7.23.16.52.24.87.24s.6-.09.79-.28c.2-.18.29-.43.29-.74,0-.41-.34-.77-1.01-1.08-.09-.05-.17-.08-.22-.1-.76-.37-1.26-.7-1.51-1-.26-.3-.38-.67-.38-1.1,0-.56.19-1.02.57-1.36.38-.35.88-.52,1.5-.52.51,0,.93.1,1.28.29.34.2.57.48.71.85l-.88.45c-.14-.22-.29-.37-.45-.48-.17-.1-.36-.15-.57-.15-.3,0-.54.08-.72.24s-.27.37-.27.63c0,.41.39.8,1.17,1.16.06.03.1.05.14.07.68.31,1.15.62,1.4.92.26.3.38.67.38,1.12,0,.65-.2,1.17-.62,1.56-.41.38-.96.58-1.67.58-.59,0-1.07-.13-1.44-.4-.38-.27-.63-.65-.74-1.16Z"/>
      <path class="cls-4" d="M200.82,58.87v-6.89h1.12v6.89h-1.12Z"/>
      <path class="cls-4" d="M205.77,52.93v5.94h-1.12v-5.94h-1.83v-.95h4.77v.95h-1.82Z"/>
      <path class="cls-4" d="M212.3,58.87l-.78-1.78h-2.73l-.8,1.78h-1.18l3.34-7.16,3.34,7.16h-1.19ZM209.2,56.16h1.92l-.7-1.57c-.04-.1-.08-.22-.13-.35-.04-.13-.09-.28-.13-.44-.04.15-.08.29-.12.42-.04.13-.08.25-.13.36l-.71,1.57Z"/>
      <path class="cls-4" d="M215.18,55.79v3.08h-1.05v-6.89h1.56c.46,0,.82.03,1.07.09.25.06.47.16.65.3.21.16.38.38.49.64.12.26.17.55.17.87,0,.55-.13.99-.4,1.3-.27.31-.66.5-1.18.56l2.37,3.13h-1.27l-2.29-3.08h-.13ZM215.25,54.91h.2c.6,0,.99-.07,1.18-.21.2-.14.29-.38.29-.73,0-.38-.1-.65-.31-.8-.21-.15-.6-.23-1.16-.23h-.2v1.98Z"/>
      <path class="cls-4" d="M219.55,58.87v-6.89h1.12v6.89h-1.12Z"/>
      <path class="cls-4" d="M226.83,58.87l-.78-1.78h-2.72l-.8,1.78h-1.17l3.33-7.16,3.34,7.16h-1.18ZM223.73,56.16h1.92l-.71-1.57c-.04-.1-.08-.22-.13-.35-.04-.13-.08-.28-.13-.44-.04.15-.08.29-.12.42-.04.13-.08.25-.13.36l-.71,1.57Z"/>
      <path class="cls-4" d="M232.61,55.79v3.08h-1.05v-6.89h1.56c.46,0,.81.03,1.07.09.25.06.47.16.65.3.21.16.38.38.49.64s.17.55.17.87c0,.55-.13.99-.4,1.3-.27.31-.66.5-1.19.56l2.37,3.13h-1.26l-2.29-3.08h-.13ZM232.68,54.91h.2c.59,0,.99-.07,1.18-.21.2-.14.29-.38.29-.73,0-.38-.1-.65-.31-.8-.21-.15-.6-.23-1.16-.23h-.2v1.98Z"/>
      <path class="cls-4" d="M236.96,58.87v-6.89h3.84v.95h-2.72v1.73h2.72v.98h-2.72v2.23h2.72v1h-3.84Z"/>
      <path class="cls-4" d="M247.71,55.46c-.01-.05-.03-.2-.06-.44-.03-.2-.04-.37-.06-.5-.03.16-.07.31-.12.47-.05.16-.12.32-.2.48l-1.8,3.67-1.81-3.75c-.07-.15-.14-.3-.19-.45-.06-.14-.11-.29-.14-.43,0,.14-.02.3-.04.45-.02.16-.05.32-.09.5l-.74,3.39h-1.03l1.63-7.18,2.03,4.35c.03.07.08.18.14.34.06.16.14.36.23.59.07-.2.17-.45.31-.75.04-.08.06-.14.08-.19l1.99-4.34,1.67,7.18h-1.04l-.77-3.4Z"/>
      <path class="cls-4" d="M250.43,58.87v-6.89h1.12v6.89h-1.12Z"/>
      <path class="cls-4" d="M253.15,58.87v-7.16l4.38,4.21c.12.12.24.25.36.38.12.14.25.29.39.46v-4.78h1.04v7.16l-4.47-4.29c-.12-.12-.23-.24-.35-.37-.11-.13-.22-.26-.32-.41v4.79h-1.03Z"/>
      <path class="cls-4" d="M264.71,55.34h2.73s0,.11,0,.2c.01.22.01.37.01.45,0,.97-.27,1.72-.83,2.26-.56.54-1.34.8-2.35.8-.57,0-1.07-.08-1.51-.25-.44-.17-.83-.42-1.16-.75-.33-.33-.58-.72-.75-1.17-.17-.45-.26-.93-.26-1.44s.09-1,.27-1.44c.18-.44.44-.83.79-1.16.34-.33.73-.58,1.18-.75.45-.17.94-.26,1.45-.26.54,0,1.03.1,1.46.3.43.2.81.5,1.15.91l-.82.62c-.23-.27-.5-.47-.78-.6-.29-.13-.62-.2-.98-.2-.75,0-1.36.24-1.83.72-.47.48-.7,1.1-.7,1.87s.24,1.41.7,1.89c.48.48,1.09.73,1.84.73.64,0,1.14-.15,1.51-.45.37-.3.55-.71.55-1.22v-.1h-1.66v-.95Z"/>
      <path class="cls-4" d="M270.69,52.93v5.94h-1.12v-5.94h-1.83v-.95h4.77v.95h-1.82Z"/>
      <path class="cls-4" d="M280.09,55.44c0,.49-.09.95-.27,1.39-.19.44-.46.83-.81,1.17-.35.34-.75.6-1.2.78-.44.18-.91.27-1.4.27s-.97-.09-1.42-.27c-.45-.18-.85-.44-1.19-.78-.35-.34-.62-.73-.81-1.16-.18-.43-.27-.9-.27-1.39s.09-.96.27-1.39c.18-.44.45-.83.81-1.17.35-.34.75-.6,1.19-.78.45-.18.92-.27,1.42-.27s.97.09,1.41.27c.44.18.84.44,1.19.78.35.35.62.74.81,1.18.18.44.27.9.27,1.39ZM278.92,55.44c0-.35-.06-.68-.19-.99-.13-.31-.31-.59-.54-.84-.23-.24-.5-.43-.81-.56-.31-.13-.63-.19-.97-.19s-.66.06-.96.19c-.31.13-.58.32-.82.56-.24.24-.42.52-.55.83-.13.31-.19.65-.19,1s.06.68.19.99c.12.31.31.59.55.83.23.24.51.43.81.56.3.13.63.19.97.19s.65-.07.96-.19c.3-.13.57-.31.82-.56.23-.24.42-.52.54-.84.13-.31.19-.64.19-.99Z"/>
      <path class="cls-4" d="M281.37,58.87v-7.16l4.38,4.21c.12.12.24.25.36.38.12.14.25.29.38.46v-4.78h1.04v7.16l-4.47-4.29c-.12-.12-.23-.24-.35-.37-.11-.13-.22-.26-.31-.41v4.79h-1.03Z"/>
    </g>
    <g>
      <path class="cls-4" d="M132.96,68.17h-.58l-1.83-2.49h-.29v2.49h-.47v-5.22h.96c.57,0,.99.12,1.28.35.28.24.42.59.42,1.07,0,.41-.12.73-.36.96-.24.23-.57.35-.99.35l1.87,2.49ZM130.26,63.36v1.93h.48c.44,0,.75-.07.92-.21.18-.14.26-.38.26-.72,0-.36-.09-.62-.27-.77-.18-.15-.49-.23-.92-.23h-.48Z"/>
      <path class="cls-4" d="M133.64,68.17v-5.22h2.59v.45h-2.11v1.63h2.11v.45h-2.11v2.25h2.11v.44h-2.59Z"/>
      <path class="cls-4" d="M136.99,67.3l.41-.22c.08.26.21.46.4.6.18.14.41.21.67.21.33,0,.59-.1.77-.29.19-.19.28-.46.28-.81,0-.25-.06-.46-.19-.63-.13-.17-.39-.36-.8-.58-.53-.28-.87-.52-1.05-.74-.18-.21-.26-.47-.26-.76,0-.37.13-.67.38-.91.25-.23.58-.35.97-.35.26,0,.49.05.68.16.2.11.35.28.48.5l-.37.22c-.08-.15-.19-.26-.32-.34-.14-.08-.31-.12-.49-.12-.26,0-.46.07-.61.23-.15.15-.23.36-.23.61,0,.37.3.71.9,1.02.11.06.2.1.25.13.44.24.74.48.89.69.15.22.22.5.22.85,0,.47-.14.84-.41,1.11-.28.28-.65.41-1.12.41-.34,0-.64-.08-.88-.26-.24-.17-.43-.42-.57-.76Z"/>
      <path class="cls-4" d="M140.94,67.87c0-.1.03-.19.1-.26.07-.07.16-.1.26-.1.11,0,.19.04.26.1.07.07.1.16.1.26s-.03.19-.1.26c-.07.07-.15.11-.26.11s-.19-.04-.26-.11c-.07-.07-.1-.16-.1-.26Z"/>
      <path class="cls-4" d="M148.07,67.76v.41h-3.36l1.13-1.23c.08-.09.19-.21.34-.37.93-1.01,1.39-1.74,1.39-2.18,0-.31-.1-.57-.32-.77-.21-.2-.49-.29-.83-.29s-.63.11-.83.33c-.2.22-.31.52-.31.9h-.47v-.05c0-.5.15-.89.44-1.18.29-.29.7-.43,1.2-.43s.88.13,1.18.4c.29.27.44.62.44,1.06,0,.56-.41,1.27-1.23,2.15l-.03.04-1.15,1.23h2.39Z"/>
      <path class="cls-4" d="M150.07,65.3c.13-.09.27-.15.41-.2.14-.04.28-.07.42-.07.45,0,.81.15,1.1.45.28.3.42.69.42,1.16s-.16.9-.48,1.21c-.32.31-.73.47-1.24.47s-.87-.15-1.16-.44c-.29-.29-.43-.68-.43-1.17,0-.29.06-.58.19-.87.12-.3.4-.75.84-1.35l1.22-1.7.38.24-1.67,2.26ZM149.6,66.69c0,.37.11.66.32.88.21.22.49.33.85.33s.63-.12.84-.35c.21-.23.32-.54.32-.93,0-.35-.1-.63-.32-.85-.21-.22-.49-.33-.83-.33s-.63.11-.85.35c-.22.23-.33.53-.33.9Z"/>
      <path class="cls-4" d="M154.27,65.3c.14-.09.28-.15.41-.2.14-.04.28-.07.42-.07.45,0,.81.15,1.1.45.28.3.42.69.42,1.16s-.16.9-.48,1.21c-.32.31-.73.47-1.24.47s-.87-.15-1.16-.44c-.29-.29-.43-.68-.43-1.17,0-.29.06-.58.19-.87.12-.3.4-.75.84-1.35l1.22-1.7.38.24-1.67,2.26ZM153.81,66.69c0,.37.1.66.32.88.22.22.5.33.85.33s.63-.12.84-.35c.21-.23.32-.54.32-.93,0-.35-.11-.63-.32-.85-.21-.22-.49-.33-.83-.33s-.63.11-.85.35c-.22.23-.33.53-.33.9Z"/>
      <path class="cls-4" d="M159.03,68.17v-4.75h-.94l.22-.43h1.18v5.17h-.46Z"/>
      <path class="cls-4" d="M166.43,68.38l-1.83-4.19-.4,3.99h-.49l.71-5.44,2,4.65,2.08-4.65.67,5.44h-.49l-.39-3.99-1.86,4.19Z"/>
      <path class="cls-4" d="M170.16,68.17v-5.22h2.59v.45h-2.11v1.63h2.11v.45h-2.11v2.25h2.11v.44h-2.59Z"/>
      <path class="cls-4" d="M173.91,68.17v-5.44l3.7,4.37v-4.15h.44v5.38l-3.7-4.38v4.22h-.45Z"/>
      <path class="cls-4" d="M182.47,66.74v-3.79h.48v4.1c0,.41-.09.73-.28.94-.18.21-.47.32-.83.32-.22,0-.42-.05-.59-.14-.17-.09-.31-.23-.42-.4l.34-.31c.1.13.2.24.31.3.11.06.23.1.35.1.23,0,.39-.08.49-.25.1-.17.15-.46.15-.87Z"/>
      <path class="cls-4" d="M184.16,62.95h.47v3.41c0,.52.12.9.35,1.15.23.25.59.38,1.08.38s.83-.12,1.07-.38c.23-.25.35-.63.35-1.15v-3.41h.47v3.26c0,.71-.16,1.23-.47,1.58-.31.35-.79.52-1.42.52s-1.12-.18-1.43-.52c-.32-.35-.47-.88-.47-1.58v-3.26Z"/>
      <path class="cls-4" d="M189.24,68.17v-5.44l3.7,4.37v-4.15h.44v5.38l-3.69-4.38v4.22h-.44Z"/>
      <path class="cls-4" d="M194.68,68.17v-5.22h.48v5.22h-.48Z"/>
      <path class="cls-4" d="M201.8,65.57c0,.37-.07.72-.21,1.05-.14.33-.34.63-.61.89-.27.26-.57.46-.91.6-.33.14-.69.21-1.07.21s-.73-.07-1.07-.21c-.34-.14-.64-.34-.9-.6-.26-.26-.47-.56-.61-.89-.14-.33-.21-.68-.21-1.05s.07-.73.21-1.06c.14-.33.35-.63.61-.89.26-.26.56-.46.9-.59.34-.13.7-.2,1.08-.2s.74.07,1.08.2c.34.13.64.33.9.59.27.26.47.56.61.89.14.33.21.68.21,1.06ZM199,67.89c.31,0,.6-.06.87-.17.27-.12.53-.28.75-.5.21-.22.38-.47.5-.76.12-.28.17-.58.17-.89s-.05-.61-.17-.89c-.12-.28-.28-.53-.5-.76-.22-.22-.47-.38-.74-.5-.27-.11-.57-.17-.88-.17s-.6.06-.87.17c-.28.11-.52.28-.74.5-.22.23-.39.48-.5.76-.12.28-.17.57-.17.89s.06.61.17.89c.11.28.28.53.5.76.22.22.46.39.74.5.27.11.56.17.88.17Z"/>
      <path class="cls-4" d="M207.91,67.76v.41h-3.35l1.12-1.23c.08-.09.19-.21.35-.37.93-1.01,1.39-1.74,1.39-2.18,0-.31-.11-.57-.32-.77-.21-.2-.49-.29-.83-.29s-.63.11-.83.33c-.21.22-.31.52-.31.9h-.47v-.05c0-.5.15-.89.45-1.18.3-.29.69-.43,1.21-.43s.88.13,1.17.4c.29.27.44.62.44,1.06,0,.56-.41,1.27-1.23,2.15l-.03.04-1.15,1.23h2.39Z"/>
      <path class="cls-4" d="M210.46,68.17v-4.75h-.94l.23-.43h1.17v5.17h-.46Z"/>
      <path class="cls-4" d="M215.47,68.17v-5.22h.82c.72,0,1.24.04,1.54.11.31.07.57.19.78.37.29.23.51.53.66.89.16.36.23.78.23,1.25s-.08.89-.23,1.25c-.15.36-.37.66-.65.87-.23.17-.49.3-.78.37-.29.07-.76.11-1.4.11h-.98ZM215.95,67.76h.67c.54,0,.92-.03,1.15-.09.22-.06.42-.16.57-.31.22-.2.38-.46.49-.76.12-.3.17-.65.17-1.04s-.05-.75-.17-1.06c-.11-.3-.28-.56-.5-.75-.16-.15-.37-.26-.61-.32-.23-.06-.66-.09-1.25-.09h-.52v4.42Z"/>
      <path class="cls-4" d="M220.56,68.17v-5.22h2.58v.45h-2.11v1.63h2.11v.45h-2.11v2.25h2.11v.44h-2.58Z"/>
      <path class="cls-4" d="M227.71,68.17v-4.75h-.95l.23-.43h1.17v5.17h-.46Z"/>
      <path class="cls-4" d="M232.77,65.92c-.13.09-.26.15-.4.19-.13.04-.27.06-.42.06-.45,0-.82-.15-1.1-.45-.29-.29-.43-.68-.43-1.16s.16-.9.48-1.21c.32-.31.73-.47,1.24-.47s.87.15,1.17.44c.29.29.44.68.44,1.16,0,.3-.07.61-.21.92-.14.32-.41.75-.82,1.3l-1.25,1.7-.39-.24,1.7-2.26ZM233.24,64.53c0-.37-.1-.66-.32-.89-.21-.22-.49-.33-.85-.33s-.63.12-.85.35c-.21.23-.31.54-.31.93,0,.35.1.63.31.86.22.22.49.33.83.33s.63-.12.85-.35.33-.53.33-.9Z"/>
      <path class="cls-4" d="M236.98,65.92c-.13.09-.27.15-.4.19-.14.04-.27.06-.42.06-.45,0-.82-.15-1.1-.45-.29-.29-.43-.68-.43-1.16s.16-.9.48-1.21c.31-.31.73-.47,1.23-.47s.87.15,1.17.44c.29.29.43.68.43,1.16,0,.3-.07.61-.21.92-.14.32-.41.75-.82,1.3l-1.25,1.7-.39-.24,1.7-2.26ZM237.45,64.53c0-.37-.11-.66-.32-.89-.21-.22-.5-.33-.85-.33s-.64.12-.85.35c-.21.23-.31.54-.31.93,0,.35.11.63.32.86.21.22.48.33.83.33s.63-.12.85-.35c.22-.23.33-.53.33-.9Z"/>
      <path class="cls-4" d="M239.79,65.3c.13-.09.27-.15.4-.2.14-.04.28-.07.43-.07.45,0,.81.15,1.1.45.28.3.42.69.42,1.16s-.16.9-.48,1.21c-.33.31-.74.47-1.24.47s-.87-.15-1.16-.44c-.28-.29-.43-.68-.43-1.17,0-.29.06-.58.18-.87.13-.3.4-.75.84-1.35l1.22-1.7.38.24-1.67,2.26ZM239.32,66.69c0,.37.1.66.32.88.21.22.49.33.85.33s.63-.12.85-.35c.21-.23.32-.54.32-.93,0-.35-.11-.63-.32-.85-.22-.22-.5-.33-.83-.33s-.63.11-.85.35c-.22.23-.33.53-.33.9Z"/>
    </g>
    <g>
      <path class="cls-4" d="M292.97,27.46c-1.41,0-2.52,1.14-2.52,2.55s1.12,2.57,2.52,2.57,2.5-1.14,2.5-2.57-1.09-2.55-2.5-2.55ZM292.97,32.24c-1.2,0-2.11-.97-2.11-2.2s.91-2.24,2.11-2.24,2.08.98,2.08,2.21-.91,2.23-2.08,2.23Z"/>
      <path class="cls-4" d="M292.09,28.55c.2-.04.48-.06.76-.06.42,0,.69.08.88.25.15.13.24.34.24.58,0,.4-.25.67-.57.78h0c.23.09.37.31.44.63.1.43.17.72.23.84h-.4c-.05-.09-.12-.35-.21-.73-.09-.42-.25-.58-.61-.59h-.36v1.32h-.4v-3.01ZM292.49,29.94h.4c.42,0,.69-.23.69-.58,0-.39-.29-.56-.7-.57-.19,0-.33.02-.39.04v1.11Z"/>
    </g>
    <g>
      <path class="cls-4" d="M134.49,47.52v-18.27h5.21c2.04,0,3.46.09,4.26.28.8.19,1.5.5,2.08.94.66.5,1.16,1.14,1.52,1.91.35.77.53,1.63.53,2.56,0,1.41-.35,2.56-1.04,3.45-.7.89-1.71,1.48-3.04,1.77l4.98,7.36h-5.63l-4.2-7.15v7.15h-4.67ZM139.16,37.89h.93c1.07,0,1.86-.18,2.35-.55.49-.37.74-.94.74-1.72,0-.92-.23-1.57-.69-1.95-.46-.39-1.23-.58-2.33-.58h-1v4.81Z"/>
      <path class="cls-4" d="M149.85,47.52v-18.27h11.2v4.01h-6.35v3.17h5.98v3.92h-5.98v3.08h6.35v4.09h-11.2Z"/>
      <path class="cls-4" d="M184.28,47.52h-4.65l-1.08-7.9c-.08-.56-.14-1.18-.21-1.86-.06-.68-.12-1.43-.17-2.23-.11.77-.34,1.74-.68,2.9-.08.24-.13.42-.16.54l-2.49,8.56h-3.32l-2.48-8.56c-.04-.12-.09-.29-.16-.54-.35-1.16-.58-2.12-.69-2.88-.05.69-.1,1.37-.17,2.05-.07.68-.15,1.35-.24,2.03l-1.07,7.9h-4.64l2.82-18.27h4.93l2.75,9.42c.02.07.05.18.1.32.26.84.42,1.56.49,2.16.03-.32.1-.69.19-1.08.09-.4.22-.87.38-1.43l2.78-9.4h4.94l2.81,18.27Z"/>
      <path class="cls-4" d="M186.06,47.52v-18.27h5.03v18.27h-5.03Z"/>
      <path class="cls-4" d="M194.09,47.52v-18.27h4.81l6.9,9.4c.13.19.35.58.66,1.15.3.58.64,1.27,1,2.07-.1-.76-.17-1.43-.22-2.02-.05-.59-.07-1.11-.07-1.57v-9.02h4.78v18.27h-4.78l-6.91-9.44c-.14-.19-.36-.58-.66-1.15-.31-.58-.64-1.26-.99-2.04.1.77.17,1.44.22,2.03.05.59.07,1.11.07,1.57v9.02h-4.81Z"/>
      <path class="cls-4" d="M223.54,40.8v-3.83h9.78c0,.12.02.26.02.41,0,.15,0,.37,0,.66,0,3.15-.83,5.59-2.49,7.32-1.66,1.74-4,2.6-7.01,2.6-1.49,0-2.8-.22-3.95-.67-1.15-.45-2.18-1.13-3.09-2.04-.87-.87-1.54-1.91-2.02-3.1-.48-1.19-.72-2.44-.72-3.75s.23-2.62.7-3.76c.47-1.14,1.17-2.17,2.09-3.09.91-.89,1.96-1.56,3.15-2.02,1.19-.46,2.46-.69,3.84-.69,1.79,0,3.37.35,4.75,1.06,1.38.71,2.53,1.76,3.47,3.16l-4.32,2.07c-.52-.71-1.09-1.23-1.74-1.58-.64-.35-1.37-.52-2.16-.52-1.49,0-2.66.5-3.52,1.49-.86.99-1.29,2.35-1.29,4.07s.43,3.11,1.29,4.11c.86,1,2.03,1.5,3.52,1.5,1.26,0,2.31-.31,3.16-.93.84-.62,1.34-1.45,1.48-2.48h-4.95Z"/>
      <path class="cls-4" d="M237.55,47.52v-13.95h-4.09v-4.32h13.17v4.32h-4.09v13.95h-4.98Z"/>
      <path class="cls-4" d="M266.35,38.43c0,1.32-.24,2.55-.72,3.69-.48,1.15-1.19,2.18-2.11,3.08-.93.9-2,1.59-3.19,2.08-1.2.49-2.45.73-3.73.73s-2.56-.24-3.75-.73c-1.2-.49-2.25-1.18-3.15-2.08-.94-.91-1.65-1.94-2.14-3.1-.49-1.16-.73-2.38-.73-3.68s.24-2.54.73-3.69c.49-1.15,1.2-2.18,2.14-3.09.91-.9,1.96-1.59,3.15-2.08,1.19-.49,2.44-.73,3.75-.73s2.55.24,3.75.73c1.2.49,2.26,1.18,3.18,2.08.91.9,1.62,1.93,2.1,3.08.48,1.16.73,2.39.73,3.7ZM256.59,43.79c1.38,0,2.52-.51,3.43-1.52.9-1.02,1.35-2.3,1.35-3.84s-.46-2.81-1.37-3.83c-.91-1.02-2.05-1.53-3.41-1.53s-2.53.51-3.43,1.53c-.9,1.02-1.36,2.3-1.36,3.84s.44,2.85,1.34,3.86c.89,1.01,2.03,1.51,3.44,1.51Z"/>
    </g>
    <g>
      <path class="cls-4" d="M105.47,47.52v-18.27h4.81l6.9,9.4c.13.19.35.58.65,1.15.31.58.64,1.27,1.01,2.07-.1-.76-.18-1.43-.22-2.02-.04-.59-.07-1.11-.07-1.57v-9.02h4.78v18.27h-4.78l-6.9-9.44c-.14-.19-.36-.58-.67-1.15-.3-.58-.63-1.26-.99-2.04.1.77.17,1.44.22,2.03.04.59.07,1.11.07,1.57v9.02h-4.81Z"/>
      <path class="cls-4" d="M126.35,47.52v-18.27h5.03v18.27h-5.03Z"/>
    </g>
    <path class="cls-4" d="M85.41,27.34h5.49v9.82c0,1.44.04,2.48.11,3.11.07.63.2,1.16.37,1.58.21.52.58.91,1.1,1.18.53.27,1.16.41,1.92.41s1.39-.14,1.91-.41.89-.66,1.11-1.18c.17-.42.3-.95.37-1.58.07-.63.11-1.66.11-3.11v-9.82h5.47v10.67c0,2.22-.13,3.85-.4,4.9-.27,1.05-.72,1.95-1.36,2.7-.69.82-1.63,1.43-2.84,1.84-1.2.41-2.66.61-4.38.61s-3.19-.2-4.39-.61c-1.2-.41-2.15-1.02-2.85-1.84-.62-.74-1.07-1.64-1.34-2.7-.27-1.05-.4-2.69-.4-4.9v-10.67Z"/>
    <path class="cls-4" d="M267.85,47.52v-20.18h5.31l7.62,10.38c.14.21.39.64.72,1.27.33.64.71,1.4,1.11,2.28-.11-.84-.19-1.58-.24-2.23-.05-.65-.08-1.23-.08-1.73v-9.97h5.28v20.18h-5.28l-7.62-10.42c-.16-.21-.4-.63-.74-1.27-.34-.64-.7-1.39-1.1-2.25.11.84.19,1.59.24,2.25.05.65.08,1.23.08,1.74v9.97h-5.31Z"/>
  </g>
  <path class="cls-1" d="M6.51,40.5C6.51,22.09,21.43,7.17,39.84,7.17s33.33,14.93,33.33,33.34-14.92,33.33-33.33,33.33S6.51,58.91,6.51,40.5Z"/>
  <g>
    <path class="cls-1" d="M39.88,8.26c-3.74,0-7.33.64-10.67,1.81v60.83c3.34,1.17,6.93,1.82,10.67,1.82,17.8,0,32.23-14.43,32.23-32.23S57.68,8.26,39.88,8.26Z"/>
    <path class="cls-2" d="M29.21,10.07C16.66,14.47,7.65,26.42,7.65,40.48s9,26.01,21.56,30.42V10.07Z"/>
    <g>
      <path class="cls-3" d="M29.21,25.1v19.13h12.54c.06,0,.12,0,.18,0,5.28,0,9.56-4.28,9.56-9.57s-4.28-9.57-9.56-9.57c-.06,0-.12,0-.18,0h0s-12.54,0-12.54,0Z"/>
      <path class="cls-3" d="M39.88,8.26c-3.74,0-7.33.64-10.67,1.81v6.09h12.72c10.14.1,18.33,8.35,18.33,18.51s-8.19,18.4-18.33,18.5h0s-.35,0-.35,0l14.8,15c9.42-5.63,15.73-15.92,15.73-27.68,0-17.8-14.43-32.23-32.23-32.23Z"/>
      <path class="cls-3" d="M47.44,71.81l-18.23-18.45v17.53c3.34,1.17,6.93,1.82,10.67,1.82,2.61,0,5.13-.32,7.56-.9h0Z"/>
    </g>
  </g>
  <g>
    <path class="cls-1" d="M50.92,58.17v-3.9h-.94l.29-.58h1.32v4.49h-.67Z"/>
    <path class="cls-1" d="M54.49,56.46c-.09.05-.19.08-.29.11-.1.02-.2.03-.3.03-.41,0-.74-.14-1-.41-.26-.27-.39-.62-.39-1.05,0-.47.14-.84.44-1.13.3-.28.68-.43,1.17-.43.45,0,.81.14,1.08.42.27.28.41.64.41,1.09,0,.48-.33,1.19-.99,2.12l-.07.11-.8,1.12-.56-.28,1.3-1.7ZM54.9,55.09c0-.27-.07-.49-.22-.65-.15-.16-.34-.25-.59-.25-.27,0-.48.08-.64.24-.16.16-.23.38-.23.66s.08.51.23.67c.16.16.37.24.63.24.24,0,.44-.08.59-.25.15-.17.23-.39.23-.66Z"/>
    <path class="cls-1" d="M56.92,58.17v-3.9h-.94l.29-.58h1.32v4.49h-.67Z"/>
    <path class="cls-1" d="M59.05,57.08c.1.19.24.34.4.45.17.1.35.15.55.15.3,0,.54-.1.73-.29.19-.19.28-.44.28-.75s-.1-.54-.29-.73c-.2-.19-.45-.28-.77-.28-.19,0-.37.03-.53.1-.16.06-.3.16-.43.29l-.18-.04.56-2.3h2.14v.6h-1.7l-.27,1c.13-.05.25-.09.36-.11.12-.02.23-.04.35-.04.43,0,.78.14,1.05.41.27.28.4.64.4,1.08,0,.51-.16.91-.47,1.21-.32.3-.74.45-1.27.45-.31,0-.59-.05-.82-.16s-.43-.28-.6-.5l.49-.54Z"/>
  </g>
</svg>